<mxfile host="app.diagrams.net" modified="2024-03-25T13:21:51.025Z" agent="Mozilla/5.0 (Windows NT 10.0; Win64; x64) AppleWebKit/537.36 (KHTML, like Gecko) Chrome/123.0.0.0 Safari/537.36" version="24.1.0" etag="Xw7aZAMyr_qrz9ayLPUg" type="github">
  <diagram name="Страница — 1" id="A_yOFJoeFuvQxSZ2iNNg">
    <mxGraphModel>
      <root>
        <mxCell id="0" />
        <mxCell id="1" parent="0" />
      </root>
    </mxGraphModel>
  </diagram>
</mxfile>
